<svg id="Layer_1" data-name="Layer 1" xmlns="http://www.w3.org/2000/svg" viewBox="0 0 315.46 92"><defs><style>.cls-1{fill:#fff;}.cls-2{fill:#ee3124;}</style></defs><title>adobe_logo</title><rect width="315.46" height="92"/><path class="cls-1" d="M176.79,124.89l-3,15.16-12.12-.46L176.53,77h13.62l12.6,63.07H191.57l-2.95-15.16ZM187.55,116l-2.31-13.68c-.66-3.94-1.51-10.09-2.15-14.35h-.24c-.69,4.29-1.63,10.62-2.33,14.37L178,116Z" transform="translate(-61.05 -63.33)"/><path class="cls-1" d="M239.45,75.3V127c0,4.1.21,9.14.38,13.08H230l-.65-5.26h-.24a11,11,0,0,1-9.55,6c-9.44,0-14.11-10.38-14.11-23.49,0-16,7-23.73,14.58-23.73a8.08,8.08,0,0,1,7.85,4.75H228v-23ZM228,111.87a15.35,15.35,0,0,0-.17-2.72c-.44-3.11-2.11-5.92-4.78-5.92-4.59,0-6.27,6.6-6.27,14.29,0,8.86,2.4,13.9,6.11,13.9,1.7,0,3.65-.88,4.72-4.59a9.32,9.32,0,0,0,.39-2.89Z" transform="translate(-61.05 -63.33)"/><path class="cls-1" d="M263,140.8c-10.51,0-17.11-8.43-17.11-23.48,0-16.42,8.46-23.73,17.37-23.73,10.37,0,16.88,8.83,16.88,23.47,0,18.81-10.18,23.74-17,23.74Zm.21-8.73c4.36,0,5.43-8.18,5.43-14.95,0-6.44-1.08-14.82-5.62-14.82-4.82,0-5.83,8.38-5.83,14.82,0,7.76,1.28,14.95,5.92,14.95Z" transform="translate(-61.05 -63.33)"/><path class="cls-1" d="M286.5,75.3h11.41V99.12h.18c2.25-3.52,5.24-5.53,9.59-5.53,8.6,0,12.91,9.75,12.91,22.48,0,16.1-6.45,24.73-14.78,24.73-4,0-6.64-1.77-9-6.22h-.24l-.65,5.47h-9.79c.17-3.8.38-9,.38-13.08Zm11.41,48.43a9.3,9.3,0,0,0,.45,2.92c1.14,3.83,3.09,4.77,4.64,4.77,4.39,0,6.19-5.57,6.19-14.49,0-8.1-1.88-13.7-6.24-13.7-2.16,0-4,2.35-4.61,4.85a12,12,0,0,0-.43,2.88Z" transform="translate(-61.05 -63.33)"/><path class="cls-1" d="M336.44,120.88c.14,8.26,4.5,10.95,9.9,10.95a24,24,0,0,0,8.56-1.58l1.54,8.18a33.41,33.41,0,0,1-12.17,2.12c-12.25,0-18.93-8.34-18.93-22.57,0-15.29,7.76-24.46,17.89-24.46,9.78,0,15.21,8.1,15.21,21.36a41.34,41.34,0,0,1-.33,6.06Zm11.49-8c.06-6.41-1.82-10.92-5.44-10.92-4.13,0-5.89,6-6,10.92Z" transform="translate(-61.05 -63.33)"/><polygon class="cls-2" points="63.41 11.04 90.48 11.04 90.48 75.61 63.41 11.04"/><polygon class="cls-2" points="44.34 11.04 17.24 11.04 17.24 75.61 44.34 11.04"/><polygon class="cls-2" points="53.88 34.84 71.12 75.61 59.82 75.61 54.66 62.63 42.04 62.63 53.88 34.84"/><path d="M158.25,74.25a3.43,3.43,0,0,1,0,6.86,3.43,3.43,0,1,1,0-6.86Zm0,.58A2.85,2.85,0,1,0,161,77.68a2.79,2.79,0,0,0-2.74-2.85Zm-.63,4.84h-.69V75.85a7,7,0,0,1,1.15-.11,2,2,0,0,1,1.24.31,1,1,0,0,1,.34.79.92.92,0,0,1-.73.91v0c.34.06.55.37.63.93a3.49,3.49,0,0,0,.23.95h-.7a3,3,0,0,1-.24-1A.7.7,0,0,0,158,78h-.4Zm0-2.15H158c.51,0,.92-.17.92-.61s-.24-.64-.89-.64a3.47,3.47,0,0,0-.44,0Z" transform="translate(-61.05 -63.33)"/></svg>