<svg id="Layer_1" data-name="Layer 1" xmlns="http://www.w3.org/2000/svg" viewBox="0 0 127.2 162.99"><defs><style>.cls-1{fill:#fff;}</style></defs><title>if</title><path class="cls-1" d="M53.84,110.91c0-8.85,0-10-6.13-14.07l-2-1.36c-.91-.91-.91-3.4.23-4.09,5.22-1.82,18.16-7.72,23.38-11.12,1.14,0,2,.45,2.27,1.36-.45,7.95-.91,18.84-.91,28.15v40.86c0,16.34.45,18.61,8.63,19.75l4.77.68c1.59,1.13,1.14,5-.45,5.67-6.81-.45-13.39-.68-21.34-.68-8.17,0-15,.23-21.34.68-1.59-.68-2-4.54-.45-5.67l4.77-.68c8.4-1.14,8.63-3.41,8.63-19.75Zm18.84-64.7c0,8.17-5.68,11.8-12,11.8A11.16,11.16,0,0,1,49.07,46.67c0-7.49,5.45-12.26,12.26-12.26S72.68,39.86,72.68,46.22Z" transform="translate(-39.45 -13.75)"/><path class="cls-1" d="M117.17,96.16c-3.86,0-3.86.45-3.86,6.58v47.9c0,16.34.45,19.07,8.63,19.75l8.17.68c1.59,1.13,1.13,5-.45,5.67-10.22-.45-16.8-.68-24.74-.68-8.17,0-15,.23-21.79.68-1.59-.68-2-4.54-.45-5.67l5.22-.68c8.4-1.14,8.63-3.41,8.63-19.75v-47.9c0-6.13,0-6.58-4.54-6.58H84a3.18,3.18,0,0,1-.68-4.31l9.76-4.77c1.82-.91,3.4-2.27,3.4-4.54,0-13.17,1.59-27.24,7-40,5.68-12.94,18.39-28.83,40.86-28.83,12,0,22.25,5.45,22.25,13.62,0,4.54-4.31,8.17-8.63,8.17-2.5,0-3.86-.91-5.45-2.72-4.31-5-10.67-10-18.16-10-7,0-12.71,4.31-16.12,12.49-4.09,10.44-5,27-5,38.36v6.58c0,6.13,0,6.36,3.86,6.36H143c2.5,2.27.91,8.63-1.59,9.53Z" transform="translate(-39.45 -13.75)"/></svg>